<mxfile host="app.diagrams.net" modified="2024-05-01T12:04:45.082Z" agent="Mozilla/5.0 (Macintosh; Intel Mac OS X 10.15; rv:125.0) Gecko/20100101 Firefox/125.0" version="24.3.1" etag="qNPE2RzM78naioC7eriT" type="github">
  <diagram name="Страница — 1" id="_DOQ82HtT5G_Ar-b2tsD">
    <mxGraphModel>
      <root>
        <mxCell id="0" />
        <mxCell id="1" parent="0" />
      </root>
    </mxGraphModel>
  </diagram>
</mxfile>
